<?xml version="1.0" standalone="no"?>
<!DOCTYPE svg PUBLIC "-//W3C//DTD SVG 20010904//EN"
 "http://www.w3.org/TR/2001/REC-SVG-20010904/DTD/svg10.dtd">
<svg version="1.0" xmlns="http://www.w3.org/2000/svg"
 width="435.000000pt" height="435.000000pt" viewBox="0 0 435.000000 435.000000"
 preserveAspectRatio="xMidYMid meet">
<metadata>
Created by potrace 1.11, written by Peter Selinger 2001-2013
</metadata>
<g transform="translate(0.000000,435.000000) scale(0.100000,-0.100000)"
fill="#000000" stroke="none">
<path d="M3687 4114 c-1 -1 -146 -27 -322 -58 -176 -32 -331 -59 -345 -62 -14
-2 -41 -7 -60 -10 -19 -3 -82 -14 -140 -24 -58 -11 -195 -35 -305 -54 -262
-46 -434 -76 -465 -81 -109 -21 -371 -67 -395 -71 -16 -3 -52 -9 -80 -14 -27
-5 -63 -12 -80 -14 -26 -5 -566 -99 -635 -111 -23 -5 -169 -30 -230 -40 -59
-10 -86 -18 -99 -29 -13 -10 -454 -667 -510 -758 -13 -23 -20 -45 -16 -57 4
-15 190 -159 355 -276 89 -63 157 -113 175 -127 51 -42 222 -165 237 -171 10
-3 53 0 97 8 44 8 99 17 123 20 24 3 50 8 58 10 8 2 29 7 45 9 28 5 299 52
355 62 28 4 44 7 140 25 36 6 79 13 95 16 17 2 35 6 42 8 9 3 10 -2 1 -23 -19
-46 -15 -219 6 -282 10 -30 22 -59 27 -64 20 -22 6 -34 -48 -42 -32 -4 -60 -8
-63 -9 -3 0 -27 -4 -53 -9 -27 -4 -59 -10 -70 -12 -34 -7 -118 -22 -157 -28
-19 -3 -44 -7 -55 -10 -11 -2 -40 -7 -65 -11 -25 -4 -54 -9 -65 -11 -28 -6
-349 -62 -450 -79 -16 -3 -41 -8 -55 -10 -14 -3 -36 -7 -50 -10 -23 -4 -159
-27 -235 -40 -162 -28 -174 -32 -181 -59 -3 -14 18 -108 51 -227 32 -112 65
-233 75 -269 10 -36 25 -90 33 -120 19 -67 124 -442 168 -598 17 -62 38 -120
46 -128 10 -10 26 -13 46 -9 18 4 43 8 57 9 14 2 77 13 140 24 116 21 492 87
805 142 94 17 221 39 283 51 62 11 125 22 140 25 15 2 38 7 52 9 14 3 42 8 64
11 21 3 48 8 60 10 17 3 104 18 226 39 14 3 36 7 50 10 14 2 39 7 55 10 55 9
200 35 220 39 11 2 40 7 65 11 25 4 54 9 65 11 11 3 36 7 55 10 19 3 71 12
115 20 88 16 402 71 450 79 17 3 40 7 51 9 12 2 39 7 60 11 75 11 129 22 153
30 23 7 541 784 541 811 0 28 -1 29 -370 299 -179 131 -339 249 -356 262 -18
13 -41 25 -52 28 -17 3 -147 -18 -382 -60 -14 -3 -115 -20 -225 -40 -110 -19
-220 -38 -245 -43 l-46 -9 4 57 c6 82 -13 165 -55 250 -21 41 -39 78 -41 83
-2 4 5 7 16 7 16 0 342 56 1122 195 74 13 151 26 170 29 19 3 46 8 60 11 53
10 76 14 115 20 48 7 85 30 85 52 0 15 -77 295 -240 868 -38 132 -80 285 -95
340 -31 114 -45 136 -87 133 -16 -1 -30 -3 -31 -4z"/>
</g>
</svg>
