<?xml version="1.0" encoding="UTF-8" standalone="no"?>
<svg
   xmlns:dc="http://purl.org/dc/elements/1.1/"
   xmlns:cc="http://creativecommons.org/ns#"
   xmlns:rdf="http://www.w3.org/1999/02/22-rdf-syntax-ns#"
   xmlns:svg="http://www.w3.org/2000/svg"
   xmlns="http://www.w3.org/2000/svg"
   xmlns:sodipodi="http://sodipodi.sourceforge.net/DTD/sodipodi-0.dtd"
   xmlns:inkscape="http://www.inkscape.org/namespaces/inkscape"
   width="512"
   height="512"
   viewBox="0 0 256 256"
   version="1.1"
   id="svg914"
   sodipodi:docname="logo.svg"
   inkscape:version="0.92.4 (5da689c313, 2019-01-14)">
  <metadata
     id="metadata920">
    <rdf:RDF>
      <cc:Work
         rdf:about="">
        <dc:format>image/svg+xml</dc:format>
        <dc:type
           rdf:resource="http://purl.org/dc/dcmitype/StillImage" />
        <dc:title>ThisOrThat-Logo</dc:title>
      </cc:Work>
    </rdf:RDF>
  </metadata>
  <defs
     id="defs918" />
  <sodipodi:namedview
     pagecolor="#ffffff"
     bordercolor="#666666"
     borderopacity="1"
     objecttolerance="10"
     gridtolerance="10"
     guidetolerance="10"
     inkscape:pageopacity="1"
     inkscape:pageshadow="2"
     inkscape:window-width="1280"
     inkscape:window-height="755"
     id="namedview916"
     showgrid="false"
     inkscape:zoom="1.078125"
     inkscape:cx="278.13069"
     inkscape:cy="138.70814"
     inkscape:window-x="0"
     inkscape:window-y="1"
     inkscape:window-maximized="1"
     inkscape:current-layer="ThisOrThat-Logo"
     scale-x="0.5" />
  <!-- Generator: Sketch 52.3 (67297) - http://www.bohemiancoding.com/sketch -->
  <title
     id="title878">ThisOrThat-Logo</title>
  <desc
     id="desc880">Created with Sketch.</desc>
  <g
     id="ThisOrThat-Logo"
     style="fill:none;fill-rule:evenodd;stroke:none;stroke-width:1">
    <rect
       style="opacity:1;fill:#ffffff;fill-opacity:1;fill-rule:nonzero;stroke:none;stroke-width:0.52388752;stroke-miterlimit:4;stroke-dasharray:none;stroke-opacity:1"
       id="rect904"
       width="260.60284"
       height="259.19788"
       x="-2.337481"
       y="-1.8199646" />
    <path
       style="fill:#00d5b1;stroke-width:0.49098402"
       inkscape:connector-curvature="0"
       id="Figure"
       d="M 202.16763,31.656537 49.071732,59.530912 c -0.650178,0.118378 -1.225106,0.506346 -1.591122,1.07371 L 22.854251,98.778211 c -0.715511,1.109124 -0.460395,2.603089 0.579339,3.392639 l 35.785426,27.17433 c 0.531867,0.40388 1.200632,0.56542 1.850809,0.44703 L 220.50114,100.76435 c 1.31398,-0.23924 2.19136,-1.533082 1.95967,-2.889873 -0.014,-0.08172 -0.0318,-0.162677 -0.0536,-0.242559 l -17.4945,-64.194427 c -0.33618,-1.233585 -1.52287,-2.003483 -2.74508,-1.780954 z" />
    <g
       aria-label="THIS"
       transform="matrix(0.47583614,-0.08663611,0.08390275,0.49133781,4.5482079,1.6442945)"
       style="font-weight:600;font-size:120px;font-family:OpenSans-ExtraBold, 'Open Sans';fill:#363636;stroke:#363636;stroke-width:1"
       id="Shadow">
      <path
         d="m 143.83288,179.8054 h -27.2461 v 70.3711 H 94.086784 V 179.8054 H 66.840691 v -16.875 h 76.992189 z"
         id="path896"
         inkscape:connector-curvature="0" />
      <path
         d="m 235.59069,250.1765 h -22.5 V 211.739 h -33.22266 v 38.4375 h -22.5 v -87.2461 h 22.5 v 31.9336 h 33.22266 v -31.9336 h 22.5 z"
         id="path898"
         inkscape:connector-curvature="0" />
      <path
         d="M 305.08288,250.1765 H 253.98913 V 234.70775 H 268.286 v -56.3086 H 253.98913 V 162.9304 h 51.09375 v 15.46875 H 290.786 v 56.3086 h 14.29688 z"
         id="path900"
         inkscape:connector-curvature="0" />
      <path
         d="m 393.38366,222.75462 q 0,12.89063 -10.95703,20.97657 -10.89844,8.02734 -29.64844,8.02734 -10.83984,0 -18.92578,-1.875 -8.02734,-1.93359 -15.05859,-4.86328 v -20.91797 h 2.46093 q 6.97266,5.56641 15.58594,8.55469 8.67188,2.98828 16.64063,2.98828 2.05078,0 5.39062,-0.35156 3.33984,-0.35157 5.44922,-1.17188 2.57812,-1.05469 4.21875,-2.63672 1.69922,-1.58203 1.69922,-4.6875 0,-2.87109 -2.46094,-4.92187 -2.40234,-2.10938 -7.08984,-3.22266 -4.92188,-1.17187 -10.42969,-2.16797 -5.44922,-1.05469 -10.25391,-2.63672 -11.01562,-3.57422 -15.8789,-9.66797 -4.80469,-6.15234 -4.80469,-15.23437 0,-12.1875 10.89844,-19.86328 10.95703,-7.73438 28.125,-7.73438 8.61328,0 16.99218,1.69922 8.4375,1.64063 14.58985,4.16016 v 20.09765 h -2.40235 q -5.27343,-4.21875 -12.94921,-7.03125 -7.61719,-2.87109 -15.58594,-2.87109 -2.8125,0 -5.625,0.41016 -2.75391,0.35156 -5.33203,1.40625 -2.28516,0.8789 -3.92578,2.69531 -1.64063,1.75781 -1.64063,4.04297 0,3.45703 2.63672,5.33203 2.63672,1.81641 9.96094,3.33984 4.80468,0.9961 9.19922,1.9336 4.45312,0.9375 9.55078,2.57812 10.01953,3.28125 14.76562,8.96485 4.80469,5.625 4.80469,14.64843 z"
         id="path902"
         inkscape:connector-curvature="0" />
    </g>
    <g
       aria-label="THIS"
       transform="matrix(0.47583614,-0.08663611,0.08390275,0.49133781,4.5482079,1.6442945)"
       style="font-weight:600;font-size:120px;font-family:OpenSans-ExtraBold, 'Open Sans';fill:#ffffff;stroke:#363636;stroke-width:1"
       id="text888">
      <path
         d="m 137.15457,170.61255 h -27.24609 v 70.37109 H 87.408478 V 170.61255 H 60.162384 v -16.875 h 76.992186 z"
         id="path937"
         inkscape:connector-curvature="0" />
      <path
         d="m 228.91238,240.98364 h -22.5 v -38.4375 h -33.22265 v 38.4375 h -22.5 v -87.24609 h 22.5 v 31.93359 h 33.22265 v -31.93359 h 22.5 z"
         id="path939"
         inkscape:connector-curvature="0" />
      <path
         d="M 298.40457,240.98364 H 247.31082 V 225.51489 H 261.6077 V 169.2063 h -14.29688 v -15.46875 h 51.09375 V 169.2063 H 284.1077 v 56.30859 h 14.29687 z"
         id="path941"
         inkscape:connector-curvature="0" />
      <path
         d="m 386.70535,213.56177 q 0,12.89062 -10.95703,20.97656 -10.89844,8.02734 -29.64844,8.02734 -10.83984,0 -18.92578,-1.875 -8.02734,-1.93359 -15.05859,-4.86328 v -20.91797 h 2.46094 q 6.97265,5.56641 15.58593,8.55469 8.67188,2.98828 16.64063,2.98828 2.05078,0 5.39062,-0.35156 3.33985,-0.35156 5.44922,-1.17187 2.57813,-1.05469 4.21875,-2.63672 1.69922,-1.58203 1.69922,-4.6875 0,-2.8711 -2.46094,-4.92188 -2.40234,-2.10937 -7.08984,-3.22265 -4.92187,-1.17188 -10.42969,-2.16797 -5.44922,-1.05469 -10.2539,-2.63672 -11.01563,-3.57422 -15.87891,-9.66797 -4.80469,-6.15234 -4.80469,-15.23438 0,-12.1875 10.89844,-19.86328 10.95703,-7.73437 28.125,-7.73437 8.61328,0 16.99219,1.69922 8.4375,1.64062 14.58984,4.16015 v 20.09766 h -2.40234 q -5.27344,-4.21875 -12.94922,-7.03125 -7.61719,-2.87109 -15.58594,-2.87109 -2.8125,0 -5.625,0.41015 -2.7539,0.35156 -5.33203,1.40625 -2.28516,0.87891 -3.92578,2.69531 -1.64063,1.75782 -1.64063,4.04297 0,3.45703 2.63672,5.33203 2.63672,1.81641 9.96094,3.33985 4.80469,0.99609 9.19922,1.93359 4.45312,0.9375 9.55078,2.57813 10.01953,3.28125 14.76563,8.96484 4.80468,5.625 4.80468,14.64844 z"
         id="path943"
         inkscape:connector-curvature="0" />
    </g>
    <path
       style="fill:#1871e4;stroke-width:0.49098402"
       inkscape:connector-curvature="0"
       id="path892"
       d="M 34.479834,154.89805 193.66163,125.91561 c 0.65018,-0.11838 1.31894,0.0432 1.85081,0.44704 l 35.78542,27.17434 c 1.03974,0.78954 1.29485,2.28351 0.57935,3.39263 l -24.62636,38.17359 c -0.36602,0.56736 -0.94095,0.95533 -1.59113,1.07371 L 52.67205,224.03159 c -1.224225,0.22289 -2.412427,-0.54989 -2.746515,-1.78627 L 32.572346,158.02517 c -0.358584,-1.32704 0.392561,-2.70297 1.677729,-3.07324 0.07569,-0.0218 0.152369,-0.0398 0.229759,-0.0539 z" />
    <g
       transform="matrix(0.48317668,0,0,0.49891749,105.04896,105.41913)"
       id="OR">
      <path
         style="fill:#363636"
         d="M 96,48 A 48,48 0 0 1 48,96 48,48 0 0 1 0,48 48,48 0 0 1 48,0 48,48 0 0 1 96,48 Z"
         id="Oval"
         inkscape:connector-curvature="0" />
      <g
         aria-label="OR"
         style="font-weight:600;font-size:40px;font-family:OpenSans-ExtraBold, 'Open Sans';fill:#ffffff"
         id="text909">
        <path
           d="m 51.019531,46.46875 q 0,6.953125 -3.984375,11.054687 -3.984375,4.082032 -11.015625,4.082032 -7.011719,0 -10.996094,-4.082032 -3.984375,-4.101562 -3.984375,-11.054687 0,-7.011719 3.984375,-11.074219 3.984375,-4.082031 10.996094,-4.082031 6.992188,0 10.996094,4.082031 4.003906,4.0625 4.003906,11.074219 z m -9.941406,7.363281 q 1.09375,-1.328125 1.621094,-3.125 0.527343,-1.816406 0.527343,-4.257812 0,-2.617188 -0.605468,-4.453125 -0.605469,-1.835938 -1.582032,-2.96875 -0.996093,-1.171875 -2.304687,-1.699219 -1.289063,-0.527344 -2.695313,-0.527344 -1.425781,0 -2.695312,0.507813 -1.25,0.507812 -2.304688,1.679687 -0.976562,1.09375 -1.601562,3.027344 -0.605469,1.914062 -0.605469,4.453125 0,2.597656 0.585938,4.433594 0.605468,1.816406 1.582031,2.96875 0.976562,1.152343 2.285156,1.699218 1.308594,0.546875 2.753906,0.546875 1.445313,0 2.753907,-0.546875 1.308593,-0.566406 2.285156,-1.738281 z"
           id="path906"
           inkscape:connector-curvature="0" />
        <path
           d="m 73.03125,40.824219 q 0,-1.09375 -0.449219,-1.875 -0.449219,-0.78125 -1.542969,-1.230469 -0.761718,-0.3125 -1.777343,-0.371094 -1.015625,-0.07813 -2.363282,-0.07813 h -2.714843 v 7.832031 h 2.304687 q 1.796875,0 3.007813,-0.175781 1.210937,-0.175781 2.03125,-0.800781 0.78125,-0.605469 1.132812,-1.328125 0.371094,-0.742188 0.371094,-1.972656 z M 84.730469,61 H 75.570312 L 67.640625,50.335937 H 64.183594 V 61 H 56.722656 V 31.917969 h 12.578125 q 2.578125,0 4.433594,0.292968 1.855469,0.292969 3.476562,1.269532 1.640625,0.976562 2.597657,2.539062 0.976562,1.542969 0.976562,3.886719 0,3.222656 -1.503906,5.253906 -1.484375,2.03125 -4.257813,3.378906 z"
           id="path908"
           inkscape:connector-curvature="0" />
      </g>
    </g>
    <g
       style="font-weight:600;font-size:120px;font-family:OpenSans-ExtraBold, 'Open Sans';stroke:#363636;stroke-width:1"
       font-weight="600"
       font-size="120"
       transform="matrix(0.47583614,-0.08663611,0.08390275,0.49133781,40.346745,145.54053)"
       id="g902">
      <g
         aria-label="THAT"
         style="fill:#363636"
         id="text896">
        <path
           d="M 86.625618,67.568192 H 59.379525 v 70.371098 h -22.5 V 67.568192 H 9.633431 v -16.875 h 76.992187 z"
           id="path946"
           inkscape:connector-curvature="0" />
        <path
           d="m 178.38343,137.93929 h -22.5 V 99.501785 h -33.22266 v 38.437505 h -22.5 V 50.693192 h 22.5 v 31.933593 h 33.22266 V 50.693192 h 22.5 z"
           id="path948"
           inkscape:connector-curvature="0" />
        <path
           d="m 281.33265,137.93929 h -23.26172 l -6.03516,-17.63672 h -32.34375 l -6.03515,17.63672 h -22.67578 l 32.22656,-87.246098 h 25.89844 z M 246.58656,104.30647 235.8639,73.01741 225.14124,104.30647 Z"
           id="path950"
           inkscape:connector-curvature="0" />
        <path
           d="m 362.25062,67.568192 h -27.2461 v 70.371098 h -22.5 V 67.568192 h -27.24609 v -16.875 h 76.99219 z"
           id="path952"
           inkscape:connector-curvature="0" />
      </g>
      <g
         aria-label="THAT"
         style="fill:#ffffff"
         id="text900">
        <path
           d="M 79.947314,58.375336 H 52.701221 v 70.371094 h -22.5 V 58.375336 H 2.9551268 v -16.875 H 79.947314 Z"
           id="path955"
           inkscape:connector-curvature="0" />
        <path
           d="m 171.70513,128.74643 h -22.5 V 90.308929 H 115.98247 V 128.74643 H 93.482471 V 41.500336 h 22.499999 v 31.933593 h 33.22266 V 41.500336 h 22.5 z"
           id="path957"
           inkscape:connector-curvature="0" />
        <path
           d="m 274.65435,128.74643 h -23.26172 l -6.03516,-17.63672 h -32.34375 l -6.03516,17.63672 h -22.67578 l 32.22657,-87.246094 h 25.89843 z M 239.90825,95.113617 229.1856,63.824554 218.46294,95.113617 Z"
           id="path959"
           inkscape:connector-curvature="0" />
        <path
           d="m 355.57231,58.375336 h -27.24609 v 70.371094 h -22.5 V 58.375336 h -27.24609 v -16.875 h 76.99218 z"
           id="path961"
           inkscape:connector-curvature="0" />
      </g>
    </g>
  </g>
</svg>
